<svg version="1.1" preserveAspectRatio="none" xmlns="http://www.w3.org/2000/svg" width="500" height="500" viewBox="0 0 500 500"><rect width="100%" height="100%" fill="#F7F7F7" fill-opacity="1"/><svg viewBox="545.0126 275.2967 354.9525 342.8542" width="333" height="321.6499351321656" x="83.5px" y="89.175px" xmlns="http://www.w3.org/2000/svg" xmlns:xlink="http://www.w3.org/1999/xlink" preserveAspectRatio="none"><defs></defs><style>.companyName {fill:#2B2B2B;fill-opacity:1;}.icon1 {fill:#2B2B2B;fill-opacity:1;}.icon2 {fill:#59C65B;fill-opacity:1;}.icon3 {fill:#6D6D6D;fill-opacity:1;}.icon3-str {stroke:#6D6D6D;stroke-opacity:1;}</style><g opacity="1" transform="rotate(0 651.4984 275.2967)">
<svg width="141.981" height="216.3542" x="651.4984" y="275.2967" version="1.1" preserveAspectRatio="none" viewBox="47.500003814697266 20 104.99894714355469 160">
  <g transform="matrix(1 0 0 1 0 0)"><g><path d="M91 74c.3-.3.6-.5.9-.8.4-.5.4-1.1.3-1.7-.9-.6-.8-1.6-.5-2.5.4-1.1 1.2-1.7 2-2.5.9-.9 1.2-2 1.5-3.1 0 0-.1-.1-.1-.2 0-1.3-.1-2.5.3-3.6 0-.1.1-.2.2-.2.1-.8.3-1.6.6-2.3 0-.2.1-.3.1-.4.2-.9.7-1.8 1.3-2.5 1.1-1.4 2.7-2.4 4.3-3.2 1.6-.8 3.5-1.8 5.4-1.3.6.2 1.2.6 1.7 1 .4.3.9.7 1 1.2.4.2.2.8-.2.6-.5-.2-.9-.6-1.4-.8-.7-.3-1.5-.5-2.2-.6-.3-.1-.8-.2-1 .1-.2.5.2 1.4.2 1.9.1 1 0 2.4-.4 3.4 0 .1-.1.2-.1.2.1.1.1.3 0 .4-.1.2-.3.3-.5.2-.2-.1-.3-.2-.5-.3h-.4c-1-.1-2 .4-2.6 1.2-.3.4-.4 1-.3 1.5.2.6.7.8 1.3.9.4.1.9.2 1.2.4.2-.1.5 0 .5.2.1.4-.1.8-.2 1.3v.2c.1.6.4 1.2.7 1.7.6 1 1.3 1.9 1.8 3 .5.9 1 1.9 1.2 3 .2 1.6-.2 3.7-2 4.2-1 .3-2 .1-3 0-1.3-.2-2.6-.6-3.9-.8-2-.3-3.9.6-5.6 1.5-.5.3-1.4.8-1.9.4-.6-.7-.1-1.3.3-1.7z" data-color="1" class="icon1"></path><path d="M101.9 57.4c.8-.7 1.8-.6 2.5 0 .6-.6.9-1.5 1.1-2.3.3-1 .1-2 0-3-.3-.3-.2-.6 0-.8.2-.2.4-.2.7-.1.5.3.9.5 1.5.7.4.1.8.3 1.2.5l.3.3c.1 0 .1.1.2.1l.6.3c.2.1.4.2.6.2.2 0 .4 0 .6.1.4 0 .9.3 1 .7v1.1c-.2 1.6.3 3.2.1 4.8-.2 1.2-1 2-2.1 2.5-.7.3-1.6.7-2.4.5l.3 2.4c0 .8.3 1.8 1.1 2.3.6.3 1.5-.4 2-.7.6-.4 1-1.1 1.7-1.3.5-.1 1.1 0 1.2.6.1.5-.3 1-.6 1.3-.5.7-1.1 1.4-1.7 2-.5.5-.9 1-1.5 1.5-1 .8-1.8.2-2.2-.9-.2-.6-.3-1.2-.6-1.7-.3-.8-1-1.4-1.6-2-1.2-1.3-2.1-3-2.2-4.7 0-.3.1-.9-.2-1.1-.2-.1-.7 0-1 0-.4-.1-.8-.3-1.1-.7-.5-1-.1-2.1.5-2.6z" data-color="2" class="icon2"></path><path d="M105.7 50.8c.9-.1 1.8.1 2.6.5s1.5 1.2 2.4 1.4c.6.1 1.2 0 1.6.4.7.7.4 1.7.4 2.6 0 1 .3 2.1.3 3.1 0 .9-.2 1.8-.7 2.5-.9 1.5-2.6 2-4.2 2.3-.5.1-.7-.7-.2-.8 1.4-.2 2.9-.6 3.8-1.9 1-1.5.4-3.2.3-4.9 0-.6.4-2.1-.3-2.4-.2-.1-.5-.1-.8-.1-.3 0-.6-.1-.9-.2-.7-.3-1.2-.8-1.8-1.1-.8-.4-1.5-.5-2.4-.7-.3-.1-.4-.6-.1-.7z" data-color="1" class="icon1"></path><path d="M107.8 65.8c.2.8.4 1.7 1.2 2.1.7.3 1.3-.2 1.9-.6.5-.4 1.1-.8 1.7-1.2 0-.3.1-.6.1-.9-.2.1-.4.2-.5.3-.4.2-.8.5-1.1.7-.4.3-.7.6-1.1.9-1.4.9-1.6-3.4-1.7-4.1 0-.3-.6-.3-.6 0-.1 1 0 1.9.1 2.8z" data-color="1" class="icon1"></path><path d="M107.4 53.2s.1-.1.2-.1h.4c.1.1.2.2.4.3 0 0 0 .1.1.1l.1.1s0 .1.1.1v.1c0 .1 0 .2-.1.2s-.1.1-.2.1-.2 0-.2-.1c0 0-.1-.1-.2-.1l-.1-.1c-.2-.1-.2-.2-.3-.2 0-.1-.1-.1-.1-.2-.1-.1-.1-.2-.1-.2z" data-color="1" class="icon1"></path><path d="M110.4 56.2c.1-.1.3-.2.4-.1.1.1.3.2.4.3.1.1.3.2.4.3.1.1.3.2.4.2.2.1.3.1.3.2.1.1.1.2.1.3 0 .1-.1.2-.3.2-.1 0-.3-.1-.4-.1-.2-.1-.3-.2-.5-.3-.1-.1-.3-.2-.4-.3-.1-.1-.3-.2-.4-.3-.1-.1-.1-.3 0-.4z" data-color="1" class="icon1"></path><path d="M104.5 57c.2-.3.3-.5.3-.7.2-.5.3-1.1.4-1.6.1-.5.1-1 0-1.5-.1-.9-.4-1.9-.2-2.8.1-.3.5-.2.6 0 .1.6.1 1.1.2 1.7.1.6.2 1.1.2 1.7 0 .5-.1 1-.2 1.5s-.7 3.2-1.6 2.2c-.2-.1 0-.5.3-.5z" data-color="1" class="icon1"></path><path d="M141.3 20c-.1.3-.2.6-.3.8-.5 1.3-1 2.5-1.6 3.7-.6 1.3-1.1 2.6-1.6 4-.1.2-.2.4-.2.6-.2-.1-.4-.3-.6-.4-.6-.5-1.2-.9-1.7-1.5-1.1 1-2.3 2.1-3.4 3.1-5.9 5.3-11.7 10.7-17.5 16.1-.2.2-.4.4-.6.5l-.1.1c-1.2 1.2-3.1 1.3-4.5.3-.4-.2-.7-.5-.9-.6-.2-.1-.4-.3-.6-.4-2.2-1.5-4.4-3.1-6.5-4.7l-3.6-2.7c-1.4-1-3.3-1-4.6.2-1.4 1.3-2.8 2.6-4.2 3.8-7.1 6.3-13.9 12.7-20.7 19.3-4.7 4.6-9.5 9.3-14.9 13.3-.1.1-.3.2-.4.3-.3 0-.5 0-.8-.1-1-1-1.9-2.1-2.8-3.1-.3-.4-.7-.7-1-1.1-.2-.2-.4-.4-.7-.6.2-.2.4-.4.6-.5.9-.8 1.7-1.6 2.6-2.3l5.4-4.5c3.3-2.7 6.6-5.3 9.7-8.1 3.3-2.9 6.5-5.8 9.8-8.7 3.3-2.9 6.6-5.7 10-8.5 1.5-1.2 3.1-2.4 4.7-3.6.3-.2.6-.4.9-.7.2-.1.3-.3.5-.4 1.3-1 3.1-1.1 4.4-.1.3.2.5.4.7.5.3.2.6.4.8.6.2.2.4.3.6.5 3.4 2.5 6.9 4.9 10.3 7.3 1.3.9 3.1.8 4.3-.2 3-2.4 8.4-6.9 11.4-9.4 2.1-1.8 4.3-3.5 6.4-5.3.9-.8 1.9-1.5 2.8-2.2-.3-.3-.6-.6-1-.9-.1-.1-.2-.2-.3-.2l-.2-.2.6-.3c.8-.4 1.7-.8 2.5-1.2 1.7-.8 3.5-1.5 5.3-2.2.5-.1.8-.2 1-.3z" data-color="3" class="icon3"></path><path d="M90.3 74c.4-.6 1.2-1.1 1.3-1.8.1-.3-.1-.7-.2-1-.1-.4-.2-.9-.2-1.3-.1-1.3.3-2.3 1.2-3.2.4-.4.9-.8 1.3-1.3.5-.7.8-1.5 1-2.3.4-1.5.3-3.2.6-4.7.3-1.4.8-2.8 1.6-4 1.6-2.3 4.1-4.1 6.8-4.9 1.5-.5 3.2-.8 4.7 0 1.1.6 2.2 1.9 2.2 3.2 0 .4-.6.4-.6 0 0-1.2-1.3-2.4-2.4-2.7-1.4-.4-3 0-4.3.5-2.4.9-4.7 2.5-6 4.7-.7 1.2-1.2 2.5-1.4 3.8-.2 1.3-.2 2.6-.4 3.9-.2 1.2-.6 2.4-1.3 3.3-.6.7-1.6 1.3-1.9 2.2-.3.7-.2 1.6 0 2.3.1.6.4 1.2.3 1.8-.1.6-.7 1.1-1.1 1.6-.2.3-.5.6-.6.9-.1.2-.1.4-.1.6v.4c.1.1.1.2 0 .2.3.1.3.7-.2.7-.4 0-.6-.6-.6-.9-.4-.9-.1-1.5.3-2z" data-color="1" class="icon1"></path><path d="M68.8 60c.4.5.9.8 1.4 1.2.6.4 1.2.8 1.8 1.3.6.5 1.4 1.1 1.7 1.8.2.5.2 1 .2 1.5-.2.8-.1 1.5-.3 2.3-.2.9-.3 1.8-.4 2.7-.1 2-.4 3.9-.4 5.9 0 .3-.1.8.2 1.1.3.3.7.1 1 0 1.4-.4 2.9-.9 4.3-1.2 1-.2 2.9-.4 3.3-1.5.2-.6-.1-1.5-.2-2.1l-.3-2.4c-.1-1.8-.2-3.6-.1-5.4 0-.9.1-1.8.4-2.7.3-.7.6-1.3.8-2.1.3-1.4.1-3.1-.3-4.5-.2-.8-.4-1.6-.5-2.4-.1-.4-.1-.8-.1-1.2 0-.3 0-.4-.1-.7-.2-1-1.5-1.7-2-.6-.3.6-.2 1.5-.2 2.1 0 .9.2 1.7.2 2.6-2.2-.1-3.8-1.8-3.6-4 .1-1.1.6-2 1-2.9.2-.6.6-1.5.3-2.1-.5-1.1-1.8 0-2.2.5-.3.3-.5.7-.6 1-.5.3-.7 1.2-.9 1.7 0 .1 0 .1-.1.2l-.3 1.2c-.1.4-.1.8-.1 1.2v.1c-.7 0-1.4.3-1.9.8-.4.4-.8.8-1.1 1.3-1 .1-1.6 1.1-1.8 2 0 1 .1 2.3.9 3.3z" data-color="2" class="icon2"></path><path d="M80.9 64.9c0 1.2 0 2.3.1 3.5.1 2.3.3 4.7.5 7 .2-.1.4-.1.6-.2-.1-2.1-.4-4.1-.5-6.2 0-1-.1-2.1-.1-3.1v-2h-.1c.3-.1.3-.6 0-.6-.6-.1-.5 1.2-.5 1.6z" data-color="1" class="icon1"></path><path d="M79 55.3c0 .2 0 .4-.1.5.2 0 .4.1.6 0v-.6c0-.4 0-.8-.1-1.1 0-.9-.3-2.1.2-2.9.8-1.2 1.2 1 1.3 1.6.1.8.1 1.6.3 2.4.3 1 .6 1.9.7 2.9.1 1.1-.1 2.3-.3 3.3-.1.9-.6 1.7-.6 2.6 0 .3.5.4.5 0 0-.6.4-1.2.5-1.8.2-.5.3-1 .4-1.6.2-1.1.3-2.1.1-3.2-.2-1-.6-2-.8-3-.2-.9-.1-1.9-.4-2.9-.2-.6-.5-1.4-1.3-1.4-.7 0-1 .7-1.2 1.2-.3 1 0 2.1 0 3.1.2.4.2.6.2.9z" data-color="1" class="icon1"></path><path d="M72.6 51.6v.4c0 .2 0 .4.1.6.2 0 .4 0 .6.1 0-.2 0-.4-.1-.6v-.8c0-.6.2-1.3.4-1.8.2-.6.6-1.1.9-1.7.3-.5.7-1.1 1.2-1.4.5-.3.9.1.9.7 0 .8-.4 1.6-.7 2.3-.3.8-.7 1.5-.7 2.4 0 1.6 1 2.9 2.4 3.6.4.2.8.3 1.3.4.2 0 .4.1.6 0v-.6c-.2.1-.4.1-.6 0-.3 0-.5-.1-.7-.2-.7-.3-1.3-.7-1.7-1.2-.6-.8-.7-1.9-.5-2.8.2-.8.6-1.5.9-2.2.2-.6.5-1.4.2-2.1-.2-.5-.6-.9-1.2-.9-.5.1-1 .5-1.3.9-.4.5-.7 1-1.1 1.5-.3.6-.6 1.2-.8 1.8 0 .5-.1 1.1-.1 1.6z" data-color="1" class="icon1"></path><path d="M67.7 56.7c.2-.7.6-1.5 1.2-1.9.6-.4 1.4-.4 2.1-.1 1.3.6 3 2.2 2.4 3.8-.6 1.5-2.6 0-3.1-.8-.2-.3.2-.7.4-.4.3.4 1.9 1.9 2.2.8.4-1.4-1.4-2.8-2.6-3.1-1.4-.3-2.1 1.7-2.1 2.8.1 1.5 1.6 2.7 2.7 3.6 1.2.9 2.8 1.8 3.2 3.4.1.3-.4.5-.6.2-.3-.9-1.1-1.6-1.8-2.2-.7-.5-1.4-1-2.1-1.6-.7-.6-1.4-1.3-1.8-2.2-.3-.8-.3-1.5-.1-2.3z" data-color="1" class="icon1"></path><path d="M72.6 77.3c.2-.1.4-.1.7-.1 0-.8.1-1.6.2-2.5.3-3.2.3-6.4.7-9.5 0-.4-.6-.4-.6 0-.2 2-.3 4-.4 6-.1 1.9-.3 3.8-.4 5.8-.1 0-.2.1-.2.3z" data-color="1" class="icon1"></path><path d="M69.4 55.1c.3-.2.4-.4.7-.6.3-.2.7-.3 1-.3.7-.1 1.4.1 2 .6.4.3.6.7.7 1.2 0 .2.1.3 0 .5 0 .1 0 .3-.1.4-.1.1-.1.2-.2.3-.1.1-.2.1-.3.2-.3.3-.1.5.2.5.4 0 .7-.3.8-.5.1-.1.1-.2.2-.3.1-.2.1-.5.1-.7 0-.4-.2-.9-.4-1.3-.3-.5-.7-1-1.3-1.2-.7-.3-1.4-.3-2.1-.2-.3 0-.6.1-.8.2-.1 0-.1.1-.2.1-.2.2-.4.5-.6.7-.2.1 0 .6.3.4z" data-color="1" class="icon1"></path><path d="M70.5 54.2c.1-.2.1-.4.2-.5.2-.3.5-.6.9-.8.3-.1.7-.2 1-.2.2 0 .4 0 .6.1.6.1 1.1.5 1.4.9.4.4.8 1 .7 1.6-.1.4-.4.9-.8 1.1-.2.1-.3.1-.5.1h-.2c0 .1 0 .3-.1.4 0 .1.1.2.3.2h.4c.8-.2 1.4-.8 1.6-1.6.2-.8-.3-1.6-.8-2.2-.5-.6-1.1-1-1.9-1.2h-.1c-.2 0-.4-.1-.6-.1-1.1 0-2.2.7-2.6 1.8v.2c-.1.3.4.5.5.2z" data-color="1" class="icon1"></path><path d="M128.7 52c.3.2.7.2 1 .3.4.1.8.4 1.2.5.8.3 1.6.4 2.4.5.7.1 1.4.1 2.1.1.5 0 1.1 0 1.6-.3s.5-.8.5-1.3c0-.7-.1-1.4-.1-2.2 0-1 0-2-.1-2.9v-1c0-.5.1-1 .1-1.5 0-.1 0-.1-.1-.2.1-.1.3-.2.4-.3l1-1c.7-.4 1.5-.7 2.3-.9 1.4-.4 3.1-.3 4.6-.4 1.2-.1 2.3-.2 3.3-.9.6-.5 1-1.1.8-1.8 0-.2-.1-.3-.2-.5-.2-.9-2.7.2-3.1.4-.4.2-.8.3-1.2.4h-.7c.1-.1.3-.2.4-.3.4-.2.8-.5 1.2-.8.4-.3.8-.6 1.1-1 .3-.3.7-.6 1-1 .5-.6.7-1.5 0-2.1-.2-.2-.3-.3-.5-.4-.2 0-.4 0-.5-.1-.2-.1-.2-.6-.3-.8-.3-.5-.8-.8-1.4-.6-1.1.3-2 1.5-2.5 2.4-.4.3-.8.5-1.1.9-.4.1-.7.3-1 .4.1-.2.2-.4.2-.6.1-.3.2-.6.2-1 0-.6.1-1.2.1-1.7v-.2c0-.8-.1-2-1-2.3-.9-.3-1.3.6-1.4 1.3-.1.4-.1.9-.2 1.4 0 .8-.2 1.5-.4 2.3-.1 0-.1 0-.2.1-.5.5-1.1 1.1-1.9 1.3-.6.2-1.5.2-1.9-.2-.6-.4-.5-1.4-.3-2 .3-.7.7-1.2 1.1-1.8.3-.4.6-1 .3-1.5-.2-.4-.6-.4-1-.3-1.2.5-2 1.9-2.3 3.1-.1.2-.2.3-.3.4-.4.4-.9.8-1.2 1.3-.5 1-.6 2.2-.3 3.2-.1 1.1.2 2.3-.2 3.4-.2.4-.3.9-.3 1.3-.1.6-.4 1.2-.5 1.8-.3 1-.4 2.1-.3 3.1 0 .1 0 .1.1.2-.2 1.1-.1 2.1-.4 3.2-.2.3-.2.5-.1.6z" data-color="2" class="icon2"></path><path d="M137 44.5c0 1.1.1 2.2.1 3.3v1-.1c0-1.1.3-2.2.4-3.4 0-.2 0-.3.1-.5.1-.4.2-.7.5-1 .4-.3.9-.6 1.3-.8.4-.2.7-.5 1.1-.7.4-.2.9-.3 1.4-.3 1.1-.1 2.2-.2 3.3-.2 1.7-.1 3.7-.6 4.7-2 .3-.4.6-1 .3-1.5-.3-.6-1.1-.6-1.8-.5-1 .2-1.8.6-2.7.9-.8.2-2 .3-2.8-.2-.2-.2-.6.2-.4.4 1.5 1.3 3.6.2 5.2-.3.6-.2 2.4-.6 1.8.7-.4.8-1.3 1.3-2.1 1.6-1.9.7-4 .4-6 .7-.9.1-1.4.6-2.1 1-.5.3-1.1.6-1.5 1l-.3.3c-.3.1-.4.3-.5.6z" data-color="1" class="icon1"></path><path d="M140.7 37.1c1.6-.4 3.1-1.1 4.4-2.1.9-.7 1.7-2.1 3-1.7 1.2.4 1.1 1.7.6 2.6-.6.9-1.5 1.6-2.4 2.3-.6.5-1.8 1.5-2.7 1.1-.3-.1-.3-.5 0-.4.3.1.9-.2 1.2-.4.4-.2.8-.5 1.1-.7.7-.5 1.4-1.1 2-1.8.3-.4.7-.9.6-1.5-.1-.5-.5-.7-.9-.7-.6.1-.9.6-1.3 1-.4.5-.9.9-1.5 1.2-1.2.8-2.5 1.3-3.9 1.7-.5.1-.6-.5-.2-.6z" data-color="1" class="icon1"></path><path d="M138.9 36c.5-.6 1.6-.5 2.3-.8 1-.5 1.7-1.4 2.4-2.1.6-.7 1.5-1.7 2.5-1.4.9.2 1.7 1.3 1 2.1-.2.3-.6 0-.4-.3.3-.4 0-.9-.4-1.1-.5-.3-1-.1-1.4.2-.7.6-1.2 1.3-1.8 1.9-.5.6-1.2 1.2-2 1.4-.6.2-1.3.2-1.9.6-.2.1-.5-.2-.3-.5z" data-color="1" class="icon1"></path><path d="M129.9 39.5c0 .2.1.4.1.6.1.2.1.5.2.7 0 .2.1.3.2.5.1-.5.2-.9.3-1.4 0-.1 0-.2-.1-.2-.1-.3-.1-.6-.1-.9 0-.6 0-1.1.1-1.7.3-1.8 1.6-3.3 2.6-4.7.4-.5.7-1.2 1.2-1.6 1-.7 1.1.7.8 1.3-.5.9-1.3 1.6-1.5 2.7-.1.8 0 1.6.8 1.9.9.3 2.3-.1 3.1-.6 1.1-.7 1.3-2 1.5-3.3.1-.5.2-1 .2-1.6.1-.4.1-1 .6-1.1 1.6-.4 1.6 4.6.6 5.2-.3.2-.1.7.3.5 1-.6 1-2.1 1-3.1s0-2.4-.9-3c-.9-.6-1.8-.1-2.1.9-.3 1.2-.2 2.5-.7 3.7-.3.9-1 1.4-1.9 1.6-.5.1-1.4.3-1.7-.2-.3-.5 0-1.2.2-1.7.3-.6.8-1 1.1-1.6.4-.8.6-2.4-.6-2.6-.6-.1-1.1.3-1.5.7-.5.6-.9 1.2-1.3 1.8-1 1.4-2 2.6-2.3 4.3-.4 1.1-.4 2-.2 2.9z" data-color="1" class="icon1"></path><path d="M128.3 51.6c.2 0 .4 0 .6.1l.3-3c.3-2.5.6-5 1.1-7.5.1-.5.2-.9.3-1.4 0-.1 0-.2-.1-.2-.1-.3-.1-.6-.1-.9-.1 0-.1.1-.1.2l-.3 1.2c-.3 1.2-.4 2.3-.7 3.5-.3 1.6-.5 3.3-.7 4.9 0 1-.1 2.1-.3 3.1z" data-color="1" class="icon1"></path><path d="M137 44.5c0 1.1.1 2.2.1 3.3v1c0 1.2.1 2.4.1 3.6h.6v-.3c0-1.5-.1-3-.1-4.5 0-.9-.1-1.9-.1-2.8 0-.5 0-1 .1-1.4l-.3.3c-.2.3-.3.5-.4.8z" data-color="1" class="icon1"></path><path d="M106.3 145.9 99.9 180c-5.5-1-10.7-3.3-15.1-6.7-4.4-3.4-7.9-7.8-10.3-12.9l31.8-14.5z" data-color="4" class="icon1"></path><path d="m110.3 143.8-10.6-33.1c3.4-1.1 7-1.6 10.6-1.6 19.2 0 34.9 15.7 34.9 34.7 0 19-15.8 34.7-34.9 34.7-2.1 0-4.1-.2-6.2-.5l6.2-34.2z" data-color="4" class="icon1"></path><path d="m103.4 142.9-31.7 14.6c-5.1-11-4.1-24 2.8-34.1 4.4-6.5 10.9-11.2 18.4-13.6l10.5 33.1z" data-color="5" class="icon2"></path><path d="M76.6 122.1c2.6 1.3 5.4 2 8.2 2.5 3.1.6 6.2 1.2 9.3 1.7 1.7.3 3.4.5 5.1.7 1.7.2 3.4.5 5.1.8 1.1-.1 2.2-.2 3.4-.3h.4c4.3-.4 8.6-.7 12.9-1.4 4.3-.6 8.5-1.5 12.8-2.1 3.6-.5 7.3-1.1 10.7-2.6 2.9-1.3 5.4-3.7 6.8-6.6 1.4-2.8.8-6.1-.2-9-.9-2.7-2.6-5-5.3-6.1-2.5-1.1-5.4-1.1-8-.7-3.3.4-6.2.9-9.6 1.5-2 .3-4.3 1-6.3 1.3-.6.1-1.3.3-1.9.4 0-2-.3-4-.5-5.9 0-.2-.1-.4-.1-.6-.3 0-.5 0-.8.1-1.4.1-2.8.1-4.2.1-4.7 0-9.5-.1-14.2-.1h-4.1c0 .2 0 .4-.1.7l-.3 1.8c-.2.9-.4 2-1 2.8-.4.6-.9 1.2-1.3 1.9-1.9-.3-3.7-.5-5.6-.7-1.8-.2-3.7-.5-5.5-.6-2.7-.1-5.4.3-7.8 1.5-2.4 1.2-4.7 3.4-5.5 6-1.8 5.3 3 10.7 7.6 12.9z" data-color="1" class="icon1"></path><path d="M102.7 133.5c0 .3.3.6.6.5.9-.2 1.7-.6 2.5-1.1.4-.3.7-.6 1.1-.9.5-.4.9-.5 1.4-.7 2-1 3.6-2.5 5.9-2.8 1.1-.2 2.2-.2 3.2-.3 1.2-.1 2.5-.4 3.7-.5 1-.1 1.9-.1 2.8-.4.5-.1.9-.2 1.3-.5.2.2.5.3.7.1.7-.6.9-1.4 1-2.3.1-1.2.3-2.3.3-3.5 0-2.3-.5-4.4-1.2-6.5-.5-1.4-1.1-3-2.3-4 .2-.1.3-.2.5-.4.3-.3.1-1-.4-.8-.4.1-.9.3-1.3.4-1.3-.4-3 0-4 .9-.6.1-1.2.2-1.8.4-1.2.4-2.5.7-3.7 1-1.3.3-2.3.9-3.5 1.5-1 .5-2.1.7-2.8 1.5-.7.9-.9 2.1-1.1 3.1-.6 2.6-.5 5.3-.9 7.9-.2 1.4-.6 2.7-1 4.1-.2.6-.4 1.3-.6 1.9-.2.5-.4.9-.4 1.4z" data-color="2" class="icon2"></path><path d="M135.5 104.5c-2.4 1.1-5 1.8-7.5 2.6-2.6.8-5.1 1.7-7.7 2.5-2.5.8-5.1 1.6-7.6 2.4-1.2.4-2.4.7-3.5 1.1h-1.7c0 .1-.1.3-.1.4v.2h1.9c.8-.3 1.6-.5 2.4-.8.1 0 .2-.1.3-.1l12.3-3.9c2-.7 4.1-1.3 6.1-2 1.8-.6 3.7-1.2 5.4-1.9.3-.1 0-.6-.3-.5z" data-color="1" class="icon1"></path><path d="m104.5 133.2.3.6c.9-.6 1.7-1.2 2.6-1.8 2.3-1.5 5-2.1 7.7-2.6s5.3-.9 8-1.6c2.7-.7 5.3-1.6 8-2.3 2.2-.6 4.5-1 6.4-2.2.3-.2.1-.7-.3-.5-2.2 1.3-4.9 1.6-7.3 2.3-2.7.8-5.4 1.6-8.1 2.3-2.6.7-5.2 1-7.7 1.5-2.4.5-4.9 1.2-6.9 2.5-1 .6-1.8 1.3-2.7 1.8z" data-color="1" class="icon1"></path><path d="M101.9 135.2c.8-.1 1.5-.4 2.2-.8.2-.1.4-.4.6-.5l-.3-.6c-.1-.2-.1-.4-.2-.6-.1-.9.2-2 .4-2.9.4-2.1.8-4.2 1.1-6.3.3-2.2.5-4.3.8-6.5l.6-3.3v-.2c0-.1.1-.3.1-.4h-.6c-.6 0-1.3 0-1.9.3-.1 0-.2.1-.2.2-.3.4-.3.9-.4 1.4l-.3 2.7c-.3 2.1-.6 4.2-1 6.4-.4 2.1-.7 4.3-1 6.4-.1 1.1-.3 2.2-.4 3.2 0 .2-.1.4-.1.6.1.8.5.9.6.9z" data-color="1" class="icon1"></path><path d="M117.6 88.7c.8 2.2.7 4.6 1 6.9v.2c.3 0 .5 0 .8-.1 0-.1 0-.3-.1-.4-.2-1.2-.2-2.5-.4-3.7-.1-1.1-.3-2.2-.8-3.2-.2-.3-.6 0-.5.3z" data-color="1" class="icon1"></path><path d="M96.1 95.9h.7v-.6c0-1 0-2.1-.1-3.1 0-.4-.6-.4-.6 0-.1 1 0 2.1 0 3.1v.6z" data-color="1" class="icon1"></path><path d="M72.6 81.8c0 2.3.3 4.4 1.7 6.3 1 1.3 2.3 2.6 4 3 3.7 1 9.8-2.1 14.2-3.8.6-.2 1.2-.5 1.8-.7.1.3.1.5.2.7.2 1 .4 2 .7 3 .2.8.3 1.6.5 2.5 0 .2.1.4.1.6h.6c3-.2 6.1-.4 9.1-.7 3-.2 5.9-.5 8.9-.8 1.5-.1 2.9-.3 4.4-.5.2 0 .4-.1.7-.1.2 0 .4-.1.6-.1.1-.2.1-.4.1-.6.1-.5.1-1 .1-1.5s0-1.1.1-1.6c0-.6.1-1.2.1-1.8.9-.7 1.5-1.8 1.9-2.9.5-1.3.7-2.7.7-4.1-.1-1.5-.5-3-1-4.4l.6-.3c.1 0 .2-.1.3-.1l4.5-2.4c1.3-.7 2.6-1.3 3.9-2 3.2-1.9 6.4-4.2 6.7-8.3.1-1.3 0-2.7.1-4 0-1.3.1-2.6.1-4v-.6h-.6c-1-.1-2-.1-3-.2-1.8-.2-3.5-.3-5.3-.5-.2 0-.4 0-.6-.1 0 .2 0 .4-.1.6-.1.4-.1.9-.2 1.3-.2 1.1-.6 2.3-.8 3.4-.2.2-.4.3-.6.4l-1.2.6c-2 .8-3.9 1.6-5.7 2.6-1.7 1-3.3 2.1-4.9 3.3-.5.3-1 .7-1.4 1-.2.1-.4.3-.6.4 0 .3-.1.6-.1.9-.1.5-.2.9-.3 1.4-.2.6-.4 1.2-.8 1.7-.4.6-1 .9-1.6 1.2-.9.4-1.8.8-2.7 1-.9.2-1.8.1-2.7-.1-.8-.1-1.6-.3-2.4-.5-.8-.2-1.5-.3-2.1-.8-.3-.3-.7.3-.4.5-1-.5-3.4 1.5-4.4 1.9-2.3 1.1-4.6 2.1-6.9 3.2-1.3.6-2.6 1.3-4 1.8-.2.1-1 .4-1.5.6-.3.1-.5.2-.5.2-.1-.4-.2-1.8-.3-2.5v-.6c-.2.1-.4.1-.6.2-2.7.7-5.4 1.2-8.2 1.8-.2 0-.4.1-.7.1v.6c-.5 1.2-.5 2.5-.5 3.8z" data-color="4" class="icon1"></path><path d="M95.8 69.2c.1.9.2.9.4 1.7.1.3-.1-.3.6.4 1-.3 3 .8 3.9 1.3.9.5 1.5 1.2 2.4 1.7 1.5.8 3.4.9 4.7-.4 1-1 1.1-2.6.8-3.9-.4-1.6-1.6-2.7-2.7-3.9-.6-.7-1.1-1.4-1.5-2.2-.5-1-.3-2-.4-3.1 0-.1-.1-.3-.2-.3-.6-.1-1.3 0-1.9-.2-.8-.3-.9-1.2-.6-1.9.3-.5.7-1.1 1.4-1.2.3-.1 1.2-.1 1.3.3.1.3.7.3.6-.1-.2-.7-1-.8-1.6-.8-.9 0-1.5.5-2 1.1-.9-.5-1.6.4-2.1 1.1-.9 1.1-1.8 2.3-2.4 3.6-.6 1.4-.8 3-.8 4.6 0 .6 0 1.4.1 2.2z" data-color="1" class="icon1"></path><path d="M91.3 57.1c.8 1.9 3.3 3 5.1 2.3 1.1-.4 2-1.4 2.2-2.6 0-.1 0-.2.1-.3.4-.8.6-1.6.6-2.4 0-.6 0-1.2-.3-1.7s-.9-.9-1.4-1.1c-1.2-.5-2.6-.6-3.7 0-1 .5-1.9 1.5-2.3 2.6-.6.9-.8 2.2-.3 3.2z" data-color="1" class="icon1"></path><path d="M99.5 125.2c1.9.9 4 1.3 6 2 1 .3 2 .8 3 1.2.9.3 1.8.9 2.7 1.2.5.2.8.4 1.2.6l1.5.9c.4.3.7.5 1 .7.1 0 .1.1.2.1.7.5 1.4 1.1 2.2 1.7.4.3.7-.3.4-.6l-.1-.1c-.1-.8-.2-1.5-.1-2.3.1-.7 0-1.5-.1-2.2-.2-1.7-.5-3.4-.8-5.1-.3-1.5-.7-3-1.2-4.5-.6-1.5-1.3-3-2-4.5 0-.2-.1-.4-.3-.4-1.9 0-3.8-.5-5.6-1.1-.9-.3-1.8-.6-2.7-.8-.7-.2-1.3-.8-2.1-.7-.2 0-.2.2-.3.3-.1.4-.6.7-.8.9-.3.3-.6.5-.8.8-.3.3-.6.6-.8 1-.2.4-.2.8-.2 1.2-.1 1.1-.6 2.2-.8 3.3-.2 1-.2 2.1-.3 3.1-.2 1.4-.6 2.7.8 3.3z" data-color="2" class="icon2"></path><path d="M88.8 121.5c2.7 1.3 5.4 2.3 8.2 3.2 2.6.9 5.1 1.8 7.6 2.8 1.2.5 2.4.9 3.7 1.4 1.2.5 2.5.9 3.7 1.5 1.7.8 3.2 2.1 4.6 3.4v-.9s-.1-.1-.2-.1c-.9-.7-1.7-1.5-2.7-2.1-1-.7-2-1.1-3.1-1.6-2.4-1-4.9-1.9-7.3-2.9-4.8-1.8-9.8-3.2-14.5-5.4-.1 0-.3.5 0 .7z" data-color="1" class="icon1"></path><path d="M86.7 106.4c4.3 1 8.5 2.4 12.7 3.8 2.5.9 4.9 1.8 7.4 2.5 1.2.4 2.3.7 3.5 1.1.9.3 1.4.3 2.2.3-.2-.3-.3-.6-.5-.9-.7 0-1.5-.1-2.1-.3-1.2-.4-2.4-.7-3.6-1.1-4.7-1.4-9.2-3.2-13.9-4.6-1.7-.5-3.3-1-5-1.3-.5-.1-3.1-.4-3-1.2 0-.3-.5-.4-.5-.1-.3 1.2 2 1.6 2.8 1.8z" data-color="1" class="icon1"></path><path d="M69.2 116.1c.8 1.7 2.1 3.1 3.5 4.1 3.8 2.8 8.6 3.6 13 4.9 2.5.8 5 1.8 7.5 2.6 1.2.4 2.5.7 3.6 1.2.6.2 1.1.5 1.7.8.6-2.1 1.2-4.3 1.7-6.4 1.1-4.2 1.9-8.5 2.9-12.8-3.3-1-6.5-2.5-9.9-3.5-1.8-.5-3.6-.9-5.4-1.5-.1 0-.3-.1-.5-.1-.7-.3-1.5-.7-2.2-1-2.4-1-4.9-1.9-7.6-1.6-2.2.2-4.3 1-6 2.4-1.7 1.3-2.4 3.3-2.9 5.3-.1 2-.2 3.8.6 5.6z" data-color="1" class="icon1"></path><path d="M112 113.2c.2.3.4.6.5.9 1.5 3 2.1 6.5 2.7 9.7.5 2.4 1 4.7 1.3 7.1.1.7.2 1.4.2 2.1v.9l.5.5c.1 0 .1.1.2.1 1.1 1 2.5 2.3 4.1 2.1.2 0 .3-.2.3-.3 0-1.1-.3-2.2-.6-3.3-.3-1.2-.6-2.3-.9-3.5-.6-2.4-1.4-4.8-2-7.2-.6-2.3-1-4.8-1.8-7-.5-1.5-2.1-1.8-3.7-1.9-.3-.1-.6-.1-.8-.2z" data-color="1" class="icon1"></path><path d="M149.1 102.9c2.2 1.6 6.4 9.2 0 15.5-6.4 6.2-22 9.5-22.8 9.9-.7.3-1.2-.2-1.4-1-.1-.8-5.4-17.4-5.1-17.8.3-.4 12.9-5 20.6-7.6 3.4-1.2 6.5-.5 8.7 1z" data-color="1" class="icon1"></path><path d="M117.6 70.3c.3.2.8.4 1.1.6.5.3.9.6 1.3.9.8.6 1.4 1.4 1.9 2.3.2-.1.4-.2.5-.3-.4-.7-.8-1.3-1.3-1.9-.7-.7-1.6-1.3-2.4-1.8-.3-.2-.8-.3-.9-.6-.1-.5.1-1.1.1-1.6 0-.4-.6-.4-.6 0-.1.7-.5 1.9.3 2.4z" data-color="5" class="icon2"></path><path d="M85.6 105.1c1 .6 2.3.7 3.4 1 1.5.4 3 .9 4.5 1.4 1.5.5 3.1 1 4.7 1.4 1.6.5 3.3.8 4.8 1.5.3.1.3.7-.1.6-1.6-.2-3.3-.8-4.9-1.3-1.6-.5-3.3-1-4.9-1.5-1.5-.5-3-1-4.6-1.4-1.1-.3-2.4-.5-3.4-1.1-.4-.2.1-.8.5-.6z" data-color="4" class="icon1"></path><path d="M84.8 104.3c0-.1.1-.2.2-.2h.3c.1 0 .2.1.2.2.1.4.2.8.2 1.2 0 .2-.1.3-.3.3-.2 0-.3-.1-.3-.3 0-.3-.1-.6-.2-.9-.1-.2-.1-.2-.1-.3z" data-color="4" class="icon1"></path><path d="M119.9 109c.7-.5 1.4-1 2.2-1.3.8-.4 1.6-.5 2.5-.8 1.9-.5 3.8-1.3 5.7-2.1 1.8-.7 3.7-1.1 5.4-1.9l2.1-.9c.8-.3 1.2-.8 1.4-1.6.1-.3.7-.2.6.1-.2 1.5-1.4 2-2.7 2.5-.8.3-1.7.7-2.5 1-1.1.3-2.1.7-3.2 1.1-1.9.7-3.8 1.6-5.7 2.2-1 .3-2.1.5-3 .9-.9.4-1.6.9-2.4 1.4-.5.3-.8-.3-.4-.6z" data-color="4" class="icon1"></path><path d="M82.4 78.2c0 .6.1 1.3.2 1.9.1.8-.1 1.7.3 2.5.1.4.7.1.5-.3-.3-.7-.2-1.6-.2-2.3-.1-.7-.1-1.3-.2-2-.4.1-.6.2-.6.2z" data-color="5" class="icon2"></path><path d="M126.2 61.3c0 .4.5.4.5 0 .1-1.1.3-2.1.4-3.2.1-.4.1-.8.2-1.2-.2.2-.4.3-.6.4 0 .3-.1.6-.1.9-.2 1-.4 2.1-.4 3.1z" data-color="5" class="icon2"></path></g></g>
</svg>
</g><g opacity="1" transform="rotate(0 580.1081 595.6509)">
<svg width="284.7615" height="22.5" x="580.1081" y="595.6509" version="1.1" preserveAspectRatio="none" viewBox="1.6797 -30 482.42269999999996 38.125">
  <g transform="matrix(1 0 0 1 0 0)" class="companyName"><path id="id-6izo4zJp25" d="M19.00-9.47L24.86-9.47Q24.53-4.88 21.47-2.25Q18.42 0.39 13.42 0.39L13.42 0.39Q7.95 0.39 4.81-3.29Q1.68-6.97 1.68-13.40L1.68-13.40L1.68-15.14Q1.68-19.24 3.13-22.36Q4.57-25.49 7.26-27.16Q9.94-28.83 13.50-28.83L13.50-28.83Q18.42-28.83 21.43-26.19Q24.43-23.55 24.90-18.79L24.90-18.79L19.04-18.79Q18.83-21.54 17.51-22.78Q16.19-24.02 13.50-24.02L13.50-24.02Q10.57-24.02 9.11-21.92Q7.66-19.82 7.62-15.41L7.62-15.41L7.62-13.26Q7.62-8.65 9.01-6.52Q10.41-4.39 13.42-4.39L13.42-4.39Q16.13-4.39 17.47-5.63Q18.81-6.88 19.00-9.47L19.00-9.47Z M28.26-10.51L28.26-10.76Q28.26-13.91 29.47-16.37Q30.68-18.83 32.96-20.18Q35.23-21.52 38.24-21.52L38.24-21.52Q42.52-21.52 45.22-18.91Q47.93-16.29 48.24-11.80L48.24-11.80L48.28-10.35Q48.28-5.49 45.57-2.55Q42.85 0.39 38.28 0.39Q33.71 0.39 30.99-2.54Q28.26-5.47 28.26-10.51L28.26-10.51ZM33.91-10.35L33.91-10.35Q33.91-7.34 35.04-5.75Q36.17-4.16 38.28-4.16L38.28-4.16Q40.33-4.16 41.48-5.73Q42.64-7.30 42.64-10.76L42.64-10.76Q42.64-13.71 41.48-15.33Q40.33-16.95 38.24-16.95L38.24-16.95Q36.17-16.95 35.04-15.34Q33.91-13.73 33.91-10.35Z M52.44-21.13L57.75-21.13L57.93-18.69Q60.19-21.52 64.00-21.52L64.00-21.52Q67.36-21.52 69.00-19.55Q70.64-17.58 70.68-13.65L70.68-13.65L70.68 0L65.04 0L65.04-13.52Q65.04-15.31 64.26-16.12Q63.47-16.93 61.66-16.93L61.66-16.93Q59.28-16.93 58.08-14.90L58.08-14.90L58.08 0L52.44 0L52.44-21.13Z M75.64-21.13L80.95-21.13L81.13-18.69Q83.40-21.52 87.20-21.52L87.20-21.52Q90.56-21.52 92.20-19.55Q93.85-17.58 93.88-13.65L93.88-13.65L93.88 0L88.24 0L88.24-13.52Q88.24-15.31 87.46-16.12Q86.68-16.93 84.86-16.93L84.86-16.93Q82.48-16.93 81.29-14.90L81.29-14.90L81.29 0L75.64 0L75.64-21.13Z M108.69 0.39L108.69 0.39Q104.04 0.39 101.12-2.46Q98.20-5.31 98.20-10.06L98.20-10.06L98.20-10.61Q98.20-13.79 99.43-16.30Q100.66-18.81 102.92-20.17Q105.17-21.52 108.06-21.52L108.06-21.52Q112.40-21.52 114.89-18.79Q117.38-16.05 117.38-11.04L117.38-11.04L117.38-8.73L103.92-8.73Q104.20-6.66 105.57-5.41Q106.95-4.16 109.06-4.16L109.06-4.16Q112.32-4.16 114.16-6.52L114.16-6.52L116.93-3.42Q115.66-1.62 113.49-0.62Q111.32 0.39 108.69 0.39ZM108.04-16.95L108.04-16.95Q106.36-16.95 105.32-15.82Q104.27-14.69 103.98-12.58L103.98-12.58L111.83-12.58L111.83-13.03Q111.79-14.90 110.82-15.93Q109.84-16.95 108.04-16.95Z M130.17-4.16L130.17-4.16Q131.73-4.16 132.71-5.02Q133.69-5.88 133.73-7.30L133.73-7.30L139.02-7.30Q139-5.16 137.85-3.37Q136.70-1.58 134.69-0.60Q132.69 0.39 130.27 0.39L130.27 0.39Q125.74 0.39 123.12-2.49Q120.50-5.37 120.50-10.45L120.50-10.45L120.50-10.82Q120.50-15.70 123.10-18.61Q125.70-21.52 130.23-21.52L130.23-21.52Q134.20-21.52 136.59-19.27Q138.98-17.01 139.02-13.26L139.02-13.26L133.73-13.26Q133.69-14.90 132.71-15.93Q131.73-16.95 130.13-16.95L130.13-16.95Q128.16-16.95 127.15-15.52Q126.15-14.08 126.15-10.86L126.15-10.86L126.15-10.27Q126.15-7.01 127.14-5.59Q128.14-4.16 130.17-4.16Z M144.16-26.33L149.80-26.33L149.80-21.13L153.41-21.13L153.41-16.99L149.80-16.99L149.80-6.45Q149.80-5.27 150.25-4.77Q150.70-4.26 151.97-4.26L151.97-4.26Q152.91-4.26 153.63-4.39L153.63-4.39L153.63-0.12Q151.97 0.39 150.21 0.39L150.21 0.39Q144.27 0.39 144.16-5.61L144.16-5.61L144.16-16.99L141.07-16.99L141.07-21.13L144.16-21.13L144.16-26.33Z M158.82 7.13L158.82 7.13L155.87 5.59L156.58 4.32Q157.89 1.93 157.92-0.43L157.92-0.43L157.92-4.80L162.69-4.80L162.67-0.90Q162.65 1.27 161.58 3.48Q160.50 5.68 158.82 7.13Z M185.29-28.44L185.29 0L179.43 0L179.43-28.44L185.29-28.44Z M191.03-21.13L196.34-21.13L196.52-18.69Q198.78-21.52 202.59-21.52L202.59-21.52Q205.95-21.52 207.59-19.55Q209.23-17.58 209.27-13.65L209.27-13.65L209.27 0L203.63 0L203.63-13.52Q203.63-15.31 202.84-16.12Q202.06-16.93 200.25-16.93L200.25-16.93Q197.86-16.93 196.67-14.90L196.67-14.90L196.67 0L191.03 0L191.03-21.13Z M225.79-5.84L225.79-5.84Q225.79-6.88 224.77-7.47Q223.74-8.07 221.48-8.54L221.48-8.54Q213.94-10.12 213.94-14.94L213.94-14.94Q213.94-17.75 216.27-19.64Q218.60-21.52 222.37-21.52L222.37-21.52Q226.40-21.52 228.81-19.63Q231.22-17.73 231.22-14.71L231.22-14.71L225.58-14.71Q225.58-15.92 224.80-16.71Q224.01-17.50 222.35-17.50L222.35-17.50Q220.93-17.50 220.15-16.86Q219.37-16.21 219.37-15.21L219.37-15.21Q219.37-14.28 220.26-13.70Q221.14-13.13 223.25-12.71Q225.36-12.29 226.81-11.76L226.81-11.76Q231.28-10.12 231.28-6.07L231.28-6.07Q231.28-3.18 228.80-1.40Q226.32 0.39 222.39 0.39L222.39 0.39Q219.74 0.39 217.68-0.56Q215.62-1.50 214.44-3.15Q213.27-4.80 213.27-6.72L213.27-6.72L218.62-6.72Q218.70-5.21 219.74-4.41Q220.77-3.61 222.51-3.61L222.51-3.61Q224.13-3.61 224.96-4.23Q225.79-4.84 225.79-5.84Z M254.74-10.66L254.74-10.37Q254.74-5.49 252.52-2.55Q250.30 0.39 246.53 0.39L246.53 0.39Q243.33 0.39 241.36-1.84L241.36-1.84L241.36 8.13L235.71 8.13L235.71-21.13L240.95-21.13L241.14-19.06Q243.19-21.52 246.49-21.52L246.49-21.52Q250.40-21.52 252.57-18.63Q254.74-15.74 254.74-10.66L254.74-10.66ZM249.09-10.78L249.09-10.78Q249.09-13.73 248.05-15.33Q247.00-16.93 245.01-16.93L245.01-16.93Q242.35-16.93 241.36-14.90L241.36-14.90L241.36-6.25Q242.39-4.16 245.05-4.16L245.05-4.16Q249.09-4.16 249.09-10.78Z M264.99-21.13L264.99 0L259.33 0L259.33-21.13L264.99-21.13ZM258.99-26.60L258.99-26.60Q258.99-27.87 259.84-28.69Q260.69-29.51 262.16-29.51L262.16-29.51Q263.60-29.51 264.46-28.69Q265.32-27.87 265.32-26.60L265.32-26.60Q265.32-25.31 264.45-24.49Q263.58-23.67 262.16-23.67Q260.73-23.67 259.86-24.49Q258.99-25.31 258.99-26.60Z M282.39-21.27L282.31-15.84Q281.16-16.00 280.28-16.00L280.28-16.00Q277.08-16.00 276.08-13.83L276.08-13.83L276.08 0L270.44 0L270.44-21.13L275.77-21.13L275.93-18.61Q277.63-21.52 280.63-21.52L280.63-21.52Q281.57-21.52 282.39-21.27L282.39-21.27Z M295.18 0.39L295.18 0.39Q290.54 0.39 287.62-2.46Q284.70-5.31 284.70-10.06L284.70-10.06L284.70-10.61Q284.70-13.79 285.93-16.30Q287.16-18.81 289.41-20.17Q291.67-21.52 294.56-21.52L294.56-21.52Q298.89-21.52 301.38-18.79Q303.88-16.05 303.88-11.04L303.88-11.04L303.88-8.73L290.42-8.73Q290.69-6.66 292.07-5.41Q293.45-4.16 295.55-4.16L295.55-4.16Q298.82-4.16 300.65-6.52L300.65-6.52L303.43-3.42Q302.16-1.62 299.99-0.62Q297.82 0.39 295.18 0.39ZM294.54-16.95L294.54-16.95Q292.86-16.95 291.81-15.82Q290.77-14.69 290.48-12.58L290.48-12.58L298.33-12.58L298.33-13.03Q298.29-14.90 297.31-15.93Q296.34-16.95 294.54-16.95Z M309.34 7.13L309.34 7.13L306.39 5.59L307.10 4.32Q308.41 1.93 308.44-0.43L308.44-0.43L308.44-4.80L313.21-4.80L313.19-0.90Q313.17 1.27 312.10 3.48Q311.02 5.68 309.34 7.13Z M344.32-7.46L344.32-7.46Q344.32-9.12 343.15-10.01Q341.98-10.90 338.93-11.88Q335.88-12.87 334.11-13.83L334.11-13.83Q329.26-16.45 329.26-20.88L329.26-20.88Q329.26-23.18 330.56-24.99Q331.86-26.80 334.29-27.81Q336.72-28.83 339.75-28.83L339.75-28.83Q342.80-28.83 345.18-27.72Q347.56-26.62 348.88-24.61Q350.20-22.60 350.20-20.04L350.20-20.04L344.34-20.04Q344.34-21.99 343.11-23.08Q341.88-24.16 339.65-24.16L339.65-24.16Q337.51-24.16 336.31-23.25Q335.12-22.34 335.12-20.86L335.12-20.86Q335.12-19.47 336.52-18.54Q337.92-17.60 340.63-16.78L340.63-16.78Q345.63-15.27 347.92-13.05Q350.20-10.82 350.20-7.50L350.20-7.50Q350.20-3.81 347.41-1.71Q344.61 0.39 339.89 0.39L339.89 0.39Q336.61 0.39 333.91-0.81Q331.22-2.01 329.80-4.10Q328.38-6.19 328.38-8.95L328.38-8.95L334.26-8.95Q334.26-4.24 339.89-4.24L339.89-4.24Q341.98-4.24 343.15-5.09Q344.32-5.94 344.32-7.46Z M367.41 0L367.25-2.15Q365.16 0.39 361.47 0.39L361.47 0.39Q358.07 0.39 356.28-1.56Q354.50-3.52 354.46-7.29L354.46-7.29L354.46-21.13L360.10-21.13L360.10-7.48Q360.10-4.18 363.11-4.18L363.11-4.18Q365.98-4.18 367.06-6.17L367.06-6.17L367.06-21.13L372.72-21.13L372.72 0L367.41 0Z M386.57-4.16L386.57-4.16Q388.13-4.16 389.11-5.02Q390.08-5.88 390.12-7.30L390.12-7.30L395.41-7.30Q395.39-5.16 394.24-3.37Q393.09-1.58 391.09-0.60Q389.09 0.39 386.66 0.39L386.66 0.39Q382.13 0.39 379.52-2.49Q376.90-5.37 376.90-10.45L376.90-10.45L376.90-10.82Q376.90-15.70 379.50-18.61Q382.09-21.52 386.63-21.52L386.63-21.52Q390.59-21.52 392.98-19.27Q395.38-17.01 395.41-13.26L395.41-13.26L390.12-13.26Q390.08-14.90 389.11-15.93Q388.13-16.95 386.53-16.95L386.53-16.95Q384.55-16.95 383.55-15.52Q382.54-14.08 382.54-10.86L382.54-10.86L382.54-10.27Q382.54-7.01 383.54-5.59Q384.54-4.16 386.57-4.16Z M408.23-4.16L408.23-4.16Q409.79-4.16 410.76-5.02Q411.74-5.88 411.78-7.30L411.78-7.30L417.07-7.30Q417.05-5.16 415.90-3.37Q414.75-1.58 412.75-0.60Q410.75 0.39 408.32 0.39L408.32 0.39Q403.79 0.39 401.18-2.49Q398.56-5.37 398.56-10.45L398.56-10.45L398.56-10.82Q398.56-15.70 401.16-18.61Q403.75-21.52 408.28-21.52L408.28-21.52Q412.25-21.52 414.64-19.27Q417.03-17.01 417.07-13.26L417.07-13.26L411.78-13.26Q411.74-14.90 410.76-15.93Q409.79-16.95 408.19-16.95L408.19-16.95Q406.21-16.95 405.21-15.52Q404.20-14.08 404.20-10.86L404.20-10.86L404.20-10.27Q404.20-7.01 405.20-5.59Q406.19-4.16 408.23-4.16Z M430.82 0.39L430.82 0.39Q426.17 0.39 423.25-2.46Q420.33-5.31 420.33-10.06L420.33-10.06L420.33-10.61Q420.33-13.79 421.56-16.30Q422.80-18.81 425.05-20.17Q427.31-21.52 430.20-21.52L430.20-21.52Q434.53-21.52 437.02-18.79Q439.51-16.05 439.51-11.04L439.51-11.04L439.51-8.73L426.06-8.73Q426.33-6.66 427.71-5.41Q429.08-4.16 431.19-4.16L431.19-4.16Q434.46-4.16 436.29-6.52L436.29-6.52L439.06-3.42Q437.80-1.62 435.63-0.62Q433.46 0.39 430.82 0.39ZM430.18-16.95L430.18-16.95Q428.50-16.95 427.45-15.82Q426.41-14.69 426.12-12.58L426.12-12.58L433.97-12.58L433.97-13.03Q433.93-14.90 432.95-15.93Q431.98-16.95 430.18-16.95Z M453.24 0.39L453.24 0.39Q448.60 0.39 445.68-2.46Q442.76-5.31 442.76-10.06L442.76-10.06L442.76-10.61Q442.76-13.79 443.99-16.30Q445.22-18.81 447.47-20.17Q449.73-21.52 452.62-21.52L452.62-21.52Q456.95-21.52 459.44-18.79Q461.94-16.05 461.94-11.04L461.94-11.04L461.94-8.73L448.48-8.73Q448.75-6.66 450.13-5.41Q451.51-4.16 453.61-4.16L453.61-4.16Q456.88-4.16 458.71-6.52L458.71-6.52L461.49-3.42Q460.22-1.62 458.05-0.62Q455.88 0.39 453.24 0.39ZM452.60-16.95L452.60-16.95Q450.92-16.95 449.87-15.82Q448.83-14.69 448.54-12.58L448.54-12.58L456.39-12.58L456.39-13.03Q456.35-14.90 455.37-15.93Q454.40-16.95 452.60-16.95Z M465.06-10.72L465.06-10.72Q465.06-15.66 467.28-18.59Q469.49-21.52 473.34-21.52L473.34-21.52Q476.43-21.52 478.44-19.22L478.44-19.22L478.44-30L484.10-30L484.10 0L479.00 0L478.73-2.25Q476.62 0.39 473.30 0.39L473.30 0.39Q469.57 0.39 467.32-2.55Q465.06-5.49 465.06-10.72ZM470.70-10.31L470.70-10.31Q470.70-7.34 471.74-5.76Q472.77-4.18 474.75-4.18L474.75-4.18Q477.36-4.18 478.44-6.39L478.44-6.39L478.44-14.73Q477.38-16.93 474.79-16.93L474.79-16.93Q470.70-16.93 470.70-10.31Z"/></g>
</svg>
</g><g opacity="1" transform="rotate(0 545.0126 531.6509)">
<svg width="354.9525" height="50" x="545.0126" y="531.6509" version="1.1" preserveAspectRatio="none" viewBox="1.8 -25.44 180.6 25.44">
  <g transform="matrix(1 0 0 1 0 0)" class="companyName"><path id="id-D6z1nYkh11" d="M11.80-15.76L11.80-15.76L11.80-20.52Q11.80-21.52 10.72-21.52L10.72-21.52L7.44-21.52L7.44-14.76L10.72-14.76Q11.80-14.76 11.80-15.76ZM11.80-4.92L11.80-4.92L11.80-9.88Q11.80-10.40 11.56-10.62Q11.32-10.84 10.72-10.84L10.72-10.84L7.44-10.84L7.44-3.92L10.72-3.92Q11.80-3.92 11.80-4.92ZM1.80 0L1.80-25.44L12.36-25.44Q17.44-25.44 17.44-21.04L17.44-21.04L17.44-16.56Q17.44-13.60 15.64-12.84L15.64-12.84Q17.44-12.16 17.44-9.40L17.44-9.40L17.44-4.44Q17.44 0 12.36 0L12.36 0L1.80 0Z M27.36-10.84L27.36-4.20L35.52-4.20L35.52 0L21.64 0L21.64-25.44L35.20-25.44L35.20-21.24L27.36-21.24L27.36-15.04L34.04-15.04L34.04-10.84L27.36-10.84Z M52.48-25.44L52.48-21.24L44.52-21.24L44.52-14.24L51.20-14.24L51.20-10.28L44.52-10.28L44.52 0L38.80 0L38.80-25.44L52.48-25.44Z M55.68 0L55.68-25.44L61.36-25.44L61.36 0L55.68 0Z M64.28-25.44L79.32-25.44L79.32-21.24L74.64-21.24L74.64 0L68.92 0L68.92-21.24L64.28-21.24L64.28-25.44Z M90.96-5.20L90.96-5.20L90.96-9.80Q90.96-10.32 90.72-10.54Q90.48-10.76 89.88-10.76L89.88-10.76L86.36-10.76Q81.64-10.76 81.64-15.24L81.64-15.24L81.64-21.04Q81.64-25.44 86.68-25.44L86.68-25.44L91.56-25.44Q96.60-25.44 96.60-21.04L96.60-21.04L96.60-17.72L90.88-17.72L90.88-20.24Q90.88-21.24 89.80-21.24L89.80-21.24L88.44-21.24Q87.36-21.24 87.36-20.24L87.36-20.24L87.36-15.76Q87.36-15.24 87.60-15.02Q87.84-14.80 88.44-14.80L88.44-14.80L91.88-14.80Q94.44-14.80 95.56-13.70Q96.68-12.60 96.68-10.44L96.68-10.44L96.68-4.44Q96.68 0 91.64 0L91.64 0L86.80 0Q81.72 0 81.72-4.44L81.72-4.44L81.72-7.72L87.44-7.72L87.44-5.20Q87.44-4.20 88.52-4.20L88.52-4.20L89.88-4.20Q90.96-4.20 90.96-5.20Z M105.52-25.44L105.52-25.44L110.88-25.44Q115.92-25.44 115.92-21.04L115.92-21.04L115.92-4.44Q115.92 0 110.88 0L110.88 0L105.52 0Q100.44 0 100.44-4.44L100.44-4.44L100.44-21.04Q100.44-25.44 105.52-25.44ZM110.20-5.20L110.20-5.20L110.20-20.24Q110.20-21.24 109.16-21.24L109.16-21.24L107.24-21.24Q106.16-21.24 106.16-20.24L106.16-20.24L106.16-5.20Q106.16-4.20 107.24-4.20L107.24-4.20L109.16-4.20Q110.20-4.20 110.20-5.20Z M135.20-21.04L135.20-16.52L129.44-16.52L129.44-20.52Q129.44-21.52 128.40-21.52L128.40-21.52L126.76-21.52Q125.68-21.52 125.68-20.52L125.68-20.52L125.68-4.92Q125.68-4.36 125.92-4.14Q126.16-3.92 126.76-3.92L126.76-3.92L128.40-3.92Q128.96-3.92 129.20-4.14Q129.44-4.36 129.44-4.92L129.44-4.92L129.44-8.80L135.20-8.80L135.20-4.40Q135.20 0 130.12 0L130.12 0L125 0Q119.96 0 119.96-4.40L119.96-4.40L119.96-21.04Q119.96-25.44 125-25.44L125-25.44L130.12-25.44Q135.20-25.44 135.20-21.04L135.20-21.04Z M139.08 0L139.08-25.44L144.76-25.44L144.76 0L139.08 0Z M166.64 0L160.88 0L160.00-4.60L154.20-4.60L153.32 0L147.68 0L153.44-25.44L160.72-25.44L166.64 0ZM157.08-19.52L155.00-8.76L159.16-8.76L157.08-19.52Z M175.08-25.44L175.08-4.20L182.40-4.20L182.40 0L169.40 0L169.40-25.44L175.08-25.44Z"/></g>
</svg>
</g></svg></svg>